<svg width="1156" height="293" viewBox="0 0 1156 293" fill="none" xmlns="http://www.w3.org/2000/svg">
<path fill-rule="evenodd" clip-rule="evenodd" d="M0 146.5C0 107.618 15.3035 70.9004 43.1019 43.1019C70.9004 15.3035 107.618 0 146.5 0H153.35V50.8017L87.1355 115.276V177.737L153.35 242.212V293H146.5C107.618 293 70.9004 277.696 43.1019 249.898C15.3035 222.1 0 185.382 0 146.5ZM289.63 115.084L289.671 115.29V115.303C291.891 125.524 293.014 136.032 293.014 146.513C293.014 156.994 291.891 167.502 289.671 177.723L289.63 177.928C284.123 200.041 274.409 218.194 267.23 229.525L267.079 229.758C263.928 234.334 260.476 238.759 256.831 242.924L252.077 248.363L183.109 181.189V111.823L252.077 44.6495L256.831 50.0886C260.462 54.2536 263.914 58.6788 267.079 63.2548L267.23 63.4877C274.409 74.8181 284.123 92.9713 289.63 115.084Z" fill="#F3FAF2"/>
<path fill-rule="evenodd" clip-rule="evenodd" d="M685.263 44.6416C626.434 44.6416 583.016 87.6188 583.016 146.5C583.016 205.381 626.434 248.358 685.263 248.358C744.091 248.358 787.509 205.664 787.509 146.5C787.509 87.3353 744.091 44.6416 685.263 44.6416ZM685.263 203.145C655.565 203.145 633.436 180.26 633.436 146.5C633.436 112.74 655.565 89.8548 685.263 89.8548C714.96 89.8548 737.089 112.74 737.089 146.5C737.089 180.26 714.96 203.145 685.263 203.145ZM477.022 89.8443C497.754 89.8443 517.92 104.352 522.119 123.048H570.587C564.708 77.5726 525.772 44.6416 475.898 44.6416C418.193 44.6416 374.775 87.6188 374.775 146.5C374.775 205.381 418.193 248.358 475.898 248.358C524.082 248.358 562.745 216.823 570.02 174.13H520.156C515.39 190.6 496.348 203.155 477.011 203.155C447.313 203.155 425.184 180.271 425.184 146.51C425.184 112.75 447.313 89.8653 477.011 89.8653L477.022 89.8443ZM897.303 47.9902C942.684 47.9902 971.815 78.6852 971.815 116.078V116.088C971.815 140.117 960.089 161.448 939.671 173.646L967.542 200.783V245.009H919.778V220.938L882.312 184.448H851.533V245.009H803.349V47.9902H851.533H897.303ZM851.523 143.707H872.087H889.451C908.22 143.707 921.384 134.49 921.384 116.078C921.384 97.6648 907.937 88.7314 889.167 88.7314H851.523V143.707ZM1155.45 92.2271V47.9902H1107.68V72.0717L1063.16 115.427V177.583L1107.68 220.938V245.009H1155.45V200.772L1110.93 157.428V135.582L1155.45 92.2271ZM1039.44 245.009H991.256V47.9902H1039.44V124.455V125.903V167.096V185.005V245.009Z" fill="#F3FAF2"/>
</svg>
