<svg width="1295" height="400" viewBox="0 0 1295 400" fill="none" xmlns="http://www.w3.org/2000/svg">
<path d="M612.139 94.7981C612.57 94.8891 613.005 94.957 613.442 95.0015C641.158 96.3884 665.058 106.795 685.249 125.809C685.711 126.271 686.21 126.734 686.584 127.08L671.036 142.641C670.393 142.045 669.585 141.31 668.786 140.561C659.391 131.848 648.227 125.268 636.058 121.269C630.792 119.558 625.38 118.331 619.891 117.603C614.138 116.886 608.331 116.708 602.545 117.072C596.285 117.431 590.085 118.505 584.068 120.271C578.923 121.731 573.923 123.659 569.129 126.031C562.55 129.229 556.418 133.278 550.892 138.074C548.758 139.923 546.652 141.865 544.656 143.885C540.677 147.947 537.117 152.399 534.032 157.176C531.066 161.72 528.526 166.529 526.442 171.54C523.774 177.865 521.881 184.49 520.807 191.271C520.344 194.145 520.026 197.042 519.855 199.948C519.629 203.414 519.582 206.889 519.716 210.359C520.004 216.365 520.925 222.323 522.465 228.135C527.118 246.004 537.216 261.979 551.357 273.842C565.498 285.705 582.979 292.866 601.372 294.331C605.644 294.642 609.932 294.673 614.209 294.424C621.135 294.015 627.986 292.761 634.608 290.688C639.156 289.292 643.583 287.525 647.842 285.404C661.896 278.418 673.861 267.846 682.528 254.754C687.393 247.424 691.13 239.405 693.615 230.964C693.841 230.196 694.077 229.424 694.331 228.458C691.393 228.426 688.64 228.458 685.887 228.458H586.188L608.781 205.847H719.229V207.405C718.619 234.426 709.597 258.258 691.892 278.678C676.089 296.883 656.24 308.533 632.765 313.979C626.603 315.361 620.335 316.221 614.029 316.549C608.751 316.858 603.458 316.745 598.198 316.212C573.993 313.813 552.68 304.654 534.54 288.4C516.903 272.612 505.563 253.034 500.274 229.961C498.759 223.393 497.899 216.69 497.705 209.952C496.86 180.555 505.965 154.629 525.287 132.489C540.891 114.598 560.473 103.119 583.569 97.669C589.223 96.3665 594.97 95.5041 600.757 95.0893C601.603 95.0246 602.457 95.0524 603.307 95.0015C603.742 94.9553 604.171 94.8859 604.601 94.7981H612.139Z" fill="#4C2BFF"/>
<path d="M1294.39 316.701H1272.31V228.517H1205.73V316.497C1204.86 316.752 1185.19 316.826 1183.68 316.599V184.113H1205.68V205.573C1206.6 205.823 1270.14 205.915 1272.29 205.679V139.917C1272.59 139.859 1272.9 139.819 1273.21 139.797H1293.83C1294.02 139.797 1294.2 139.829 1294.38 139.848L1294.39 316.701Z" fill="#4C2BFF"/>
<path d="M1072.56 228.401H984.363L961.812 205.823H1047.11C1044.03 197.059 1039.14 189.043 1032.76 182.301C1022.53 171.525 1010.07 164.78 995.44 162.297C980.951 159.824 966.051 162.213 953.06 169.094C940.069 175.975 929.715 186.962 923.611 200.343C917.506 213.724 915.993 228.75 919.307 243.082C922.621 257.413 930.576 270.246 941.935 279.583C955.123 290.373 970.348 295.453 987.347 294.677C1004.35 293.9 1018.87 287.321 1031.04 275.644L1046.35 290.974C1024.5 313.964 982.991 326.511 944.586 307.237C900.966 285.278 883.394 232.091 905.322 188.426C914.362 170.445 929.259 156.087 947.553 147.721C965.847 139.356 986.444 137.484 1005.94 142.414C1050.75 153.851 1073.37 194.242 1072.56 228.401Z" fill="#4C2BFF"/>
<path d="M808.21 271.906L884.387 139.859H909.627C909.651 139.891 909.673 139.925 909.692 139.961C909.692 139.993 909.724 140.04 909.692 140.067C909.641 140.205 909.581 140.34 909.511 140.469L807.887 316.652H785.894V140.053C785.917 140.013 785.945 139.975 785.977 139.942C786.003 139.917 786.035 139.9 786.07 139.892C786.212 139.853 786.357 139.828 786.504 139.818H807.346C807.533 139.836 807.718 139.865 807.901 139.905V271.86L808.21 271.906Z" fill="#4C2BFF"/>
<path d="M1117.04 316.648H1094.93V161.37C1093.42 161.287 1091.99 161.343 1090.57 161.333C1089.15 161.324 1087.61 161.333 1086.14 161.333H1068.74L1056.21 139.85H1205.62V161.32H1117.04V316.648Z" fill="#4C2BFF"/>
<path d="M763.519 316.645H741.55V184.099H763.413L763.468 184.155C763.468 184.183 763.533 184.21 763.533 184.238C763.552 228.169 763.567 272.101 763.579 316.035C763.575 316.211 763.542 316.391 763.519 316.645Z" fill="#4C2BFF"/>
<path d="M752.549 139.797C755.454 139.819 758.231 140.992 760.274 143.06C762.316 145.127 763.457 147.92 763.446 150.827C763.435 153.734 762.273 156.519 760.215 158.571C758.157 160.622 755.37 161.775 752.466 161.775C749.561 161.775 746.774 160.622 744.716 158.571C742.658 156.519 741.497 153.734 741.486 150.827C741.475 147.92 742.615 145.127 744.657 143.06C746.7 140.992 749.478 139.819 752.382 139.797H752.549Z" fill="#4C2BFF"/>
<path d="M399.986 204.938C399.594 210.559 399.456 216.217 398.767 221.797C391.471 281.054 363.835 328.537 315.322 363.307C279.082 389.287 238.181 401.412 193.631 399.87C142.114 398.098 97.6991 378.922 60.4563 343.269C60.1136 342.94 60.1219 341.627 60.4563 341.276C106.908 294.747 153.402 248.266 199.94 201.831C201.041 200.824 202.464 200.241 203.956 200.189C269.305 200.108 334.653 200.085 400 200.12L399.986 204.938Z" fill="#4C2BFF"/>
<path d="M204.858 0C210.353 0.417342 215.858 0.660561 221.333 1.25203C253.391 4.72711 282.916 15.3108 309.907 33.0032C310.09 33.1407 310.266 33.2883 310.432 33.4454L293.37 50.4735C289.655 54.1798 285.966 57.911 282.207 61.5703C281.97 61.724 281.698 61.8172 281.416 61.8418C281.135 61.8664 280.851 61.8216 280.591 61.7113C253.417 46.0771 224.166 38.8865 192.839 40.1394C122.751 42.9641 61.6494 92.6056 44.8437 160.677C34.4414 202.853 40.2284 242.92 61.6494 280.738C61.8539 281.098 61.865 281.891 61.619 282.12C52.3203 291.488 42.9893 300.831 33.6261 310.151C33.5349 310.242 33.4216 310.317 33.2088 310.488C32.3272 309.123 31.4401 307.802 30.6054 306.453C7.50417 269.108 -2.69367 228.518 0.606118 184.705C7.48482 93.6282 75.2714 19.0125 165.471 3.16737C174.591 1.5671 183.918 1.16082 193.146 0.201761L195.031 0H204.858Z" fill="#4C2BFF"/>
<path d="M306.246 120.735C306.262 112.418 309.159 104.363 314.445 97.9413C319.732 91.5199 327.08 87.129 335.239 85.5158C343.398 83.9027 351.863 85.1671 359.195 89.0937C366.527 93.0204 372.271 99.3667 375.451 107.052C378.631 114.738 379.049 123.288 376.634 131.248C374.219 139.207 369.121 146.084 362.208 150.707C355.294 155.33 346.992 157.415 338.714 156.605C330.437 155.796 322.696 152.143 316.808 146.268C313.455 142.916 310.797 138.935 308.984 134.554C307.172 130.172 306.241 125.477 306.246 120.735Z" fill="#4C2BFF"/>
</svg>
